Coordinates
version=1
nRows=54
nColumns=12
inDegrees=yes

Units are S.I. units (second, meters, Newtons, ...)
Angles are in degrees

endheader
time	SC_y	SC_z	SC_x	AC_y	AC_z	AC_x	GH_y	GH_z	GH_yy	EL_x	PS_y
       0.0              -27.98          20.78          14.95           38.3         -10.19          17.93          156.4         -8.758          43.99          95.05          118.1
   0.04349              -27.98          20.78          14.95           38.3         -10.19          17.93          156.3         -8.758           44.0          95.04          118.1
   0.08697              -27.98          20.78          14.95          38.31         -10.19          17.93          156.3         -8.759          44.01          95.02          118.1
    0.1305              -27.98          20.78          14.95          38.31         -10.19          17.92          156.3         -8.759          44.02          95.01          118.1
    0.1739              -27.98          20.78          14.95          38.32         -10.18          17.92          156.2          -8.76          44.04           95.0          118.1
    0.2174              -27.98          20.78          14.95          38.32         -10.18          17.92          156.2          -8.76          44.06          94.98          118.0
    0.2609              -27.99          20.78          14.95          38.33         -10.18          17.91          156.1         -8.761          44.07          94.97          118.0
    0.3044              -27.99          20.77          14.95          38.33         -10.18          17.91          156.1         -8.762          44.09          94.95          118.0
    0.3479              -27.99          20.77          14.96          38.34         -10.18          17.91          156.0         -8.762          44.11          94.94          118.0
    0.3914              -27.99          20.77          14.96          38.35         -10.18           17.9          155.9         -8.763          44.13          94.92          118.0
    0.4349               -28.0          20.77          14.96          38.35         -10.18           17.9          155.9         -8.764          44.15           94.9          118.0
    0.4783               -28.0          20.77          14.96          38.36         -10.18          17.89          155.8         -8.765          44.17          94.88          118.0
    0.5218               -28.0          20.77          14.96          38.37         -10.17          17.88          155.7         -8.766           44.2          94.86          118.0
    0.5653              -28.01          20.76          14.96          38.38         -10.17          17.88          155.6         -8.767          44.23          94.83          118.0
    0.6088              -28.01          20.76          14.96          38.39         -10.17          17.87          155.6         -8.768          44.26           94.8          118.0
    0.6523              -28.01          20.76          14.96           38.4         -10.17          17.86          155.5         -8.769          44.29          94.78          117.9
    0.6958              -28.02          20.76          14.96          38.41         -10.17          17.86          155.4         -8.771          44.33          94.74          117.9
    0.7393              -28.02          20.75          14.96          38.42         -10.16          17.85          155.2         -8.772          44.36          94.71          117.9
    0.7828              -28.03          20.75          14.96          38.43         -10.16          17.84          155.1         -8.774          44.41          94.67          117.9
    0.8262              -28.03          20.75          14.96          38.45         -10.16          17.83          155.0         -8.775          44.45          94.63          117.9
    0.8697              -28.04          20.74          14.96          38.47         -10.16          17.82          154.8         -8.777           44.5          94.59          117.9
    0.9132              -28.05          20.74          14.96          38.48         -10.15          17.81          154.7         -8.779          44.56          94.54          117.8
    0.9567              -28.05          20.73          14.97           38.5         -10.15          17.79          154.5         -8.782          44.62          94.48          117.8
       1.0              -28.06          20.73          14.97          38.53         -10.14          17.78          154.3         -8.784          44.69          94.42          117.8
     1.044              -28.07          20.72          14.97          38.55         -10.14          17.76          154.1         -8.787          44.76          94.36          117.7
     1.087              -28.08          20.72          14.97          38.58         -10.13          17.74          153.8          -8.79          44.85          94.28          117.7
     1.131              -28.09          20.71          14.97          38.61         -10.13          17.72          153.5         -8.794          44.94           94.2          117.7
     1.174              -28.11           20.7          14.97          38.64         -10.12           17.7          153.2         -8.798          45.05           94.1          117.6
     1.218              -28.12          20.69          14.98          38.68         -10.11          17.67          152.9         -8.803          45.16           94.0          117.6
     1.261              -28.14          20.68          14.98          38.72         -10.11          17.64          152.5         -8.808           45.3          93.87          117.5
     1.305              -28.16          20.67          14.98          38.78          -10.1          17.61          152.0         -8.814          45.46          93.74          117.5
     1.348              -28.18          20.66          14.99          38.83         -10.09          17.57          151.5         -8.821          45.63          93.58          117.4
     1.392              -28.21          20.64          14.99           38.9         -10.07          17.52          150.9         -8.828          45.84           93.4          117.3
     1.435              -28.24          20.62           15.0          38.98         -10.06          17.47          150.1         -8.838          46.08          93.18          117.2
     1.479              -28.27           20.6           15.0          39.07         -10.04           17.4          149.3         -8.848          46.36          92.93          117.1
     1.522              -28.31          20.58          15.01          39.17         -10.02          17.33          148.3         -8.861          46.69          92.64          116.9
     1.566              -28.36          20.55          15.02           39.3         -9.995          17.24          147.2         -8.876          47.08          92.29          116.8
     1.609              -28.42          20.51          15.02          39.45         -9.965          17.14          145.8         -8.894          47.55          91.87          116.6
     1.652              -28.49          20.47          15.04          39.64          -9.93          17.01          144.1         -8.915          48.11          91.37          116.3
     1.696              -28.57          20.42          15.05          39.86         -9.887          16.86          142.0         -8.942          48.81          90.75          116.0
     1.739              -28.68          20.35          15.07          40.14         -9.833          16.67          139.5         -8.974          49.66          89.99          115.7
     1.783              -28.81          20.27          15.09          40.48         -9.766          16.43          136.3         -9.015          50.73          89.04          115.2
     1.826              -28.98          20.17          15.12          40.92         -9.682          16.13          132.3         -9.066          52.07          87.84          114.6
      1.87              -29.19          20.04          15.15          41.47         -9.575          15.75          127.2         -9.131          53.78          86.32          113.9
     1.913              -29.46          19.88          15.19          42.18         -9.439          15.26          120.7         -9.215          55.97          84.37          113.0
     1.957              -29.81          19.66          15.25          43.09         -9.263          14.64          112.4         -9.322          58.78          81.87          111.8
       2.0              -30.25          19.39          15.32          44.25         -9.039          13.84          101.7         -9.459          62.36          78.68          110.2
     2.044              -30.81          19.05          15.42          45.71         -8.757          12.84          88.34         -9.631          66.87          74.66          108.3
     2.087              -31.49          18.64          15.53          47.49         -8.413          11.62          72.01          -9.84          72.36          69.77          105.9
     2.131              -32.28          18.16          15.65          49.55         -8.015           10.2          53.08         -10.08          78.73          64.09          103.2
     2.174              -33.14          17.63          15.79          51.78         -7.584          8.664          32.59         -10.35          85.62          57.95          100.3
     2.218              -33.99          17.11          15.93          54.02         -7.153           7.13          12.09         -10.61          92.52          51.81          97.32
     2.261              -34.78          16.63          16.06          56.08         -6.754          5.712         -6.836         -10.85          98.88          46.14           94.6
     2.305              -35.46          16.22          16.17          57.86         -6.411           4.49         -23.17         -11.06          104.4          41.24          92.25
